<svg width="32" height="32" viewBox="0 0 32 32" fill="none" xmlns="http://www.w3.org/2000/svg">
<g clip-path="url(#clip0_2385_25949)">
<rect width="32" height="32" rx="8" fill="#FAF7F3"/>
<path d="M20.8281 30.375C18.6406 30.375 16.9688 30.1875 15.8125 29.8125C14.6562 29.4375 13.8646 28.8542 13.4375 28.0625C13.0104 27.2708 12.7969 26.25 12.7969 25V21.125C12.7969 20.4792 12.6094 19.9635 12.2344 19.5781C11.8594 19.1927 11.3802 18.9115 10.7969 18.7344C10.2135 18.5573 9.59896 18.4688 8.95312 18.4688V13.7656C9.61979 13.7656 10.2448 13.6823 10.8281 13.5156C11.4115 13.3385 11.8854 13.0573 12.25 12.6719C12.6146 12.276 12.7969 11.7552 12.7969 11.1094V7.14062C12.7969 5.92188 13.0052 4.92188 13.4219 4.14062C13.8385 3.35938 14.6198 2.78125 15.7656 2.40625C16.9219 2.02083 18.6094 1.82812 20.8281 1.82812V6.1875C20.401 6.19792 19.9583 6.22917 19.5 6.28125C19.0417 6.33333 18.651 6.47396 18.3281 6.70312C18.0156 6.93229 17.8594 7.3125 17.8594 7.84375V12.0781C17.8594 13.3698 17.5312 14.3073 16.875 14.8906C16.2188 15.474 15.2969 15.849 14.1094 16.0156V16.2031C15.3281 16.3906 16.2552 16.776 16.8906 17.3594C17.5365 17.9323 17.8594 18.8281 17.8594 20.0469V24.3594C17.8594 24.8802 18.0208 25.2552 18.3438 25.4844C18.6667 25.7135 19.0573 25.8542 19.5156 25.9062C19.974 25.9688 20.4115 26.0104 20.8281 26.0312V30.375Z" fill="black"/>
</g>
<defs>
<clipPath id="clip0_2385_25949">
<rect width="32" height="32" rx="8" fill="white"/>
</clipPath>
</defs>
</svg>
